<svg width="99" height="82" viewBox="0 0 99 82" fill="none" xmlns="http://www.w3.org/2000/svg">
<rect x="1.5" y="12.5" width="93" height="68" rx="10.5" stroke="#406DD6" stroke-width="3"/>
<path d="M1.5 24V24C1.5 30.0751 6.42487 35 12.5 35H83.5C89.5751 35 94.5 30.0751 94.5 24V24" stroke="#406DD6" stroke-width="3"/>
<path d="M2 60.5H19V55L23.5 51H33V35" stroke="#406DD6" stroke-width="3"/>
<path d="M27.5 80.5L33 75V68V62.5H44V35.5" stroke="#406DD6" stroke-width="3"/>
<path d="M61 80.5V73L67 68V62V53V44L61 39.5V35" stroke="#406DD6" stroke-width="3"/>
<circle cx="22" cy="51" r="4.5" fill="#0D0F15" stroke="#406DD6" stroke-width="3"/>
<circle cx="67" cy="58" r="4.5" fill="#0D0F15" stroke="#406DD6" stroke-width="3"/>
<circle cx="84" cy="57" r="3.5" fill="#0D0F15" stroke="#406DD6" stroke-width="3"/>
<circle cx="33" cy="62" r="4.5" fill="black" stroke="#406DD6" stroke-width="3"/>
<circle cx="44" cy="48" r="4.5" fill="#0D0F15" stroke="#406DD6" stroke-width="3"/>
<mask id="path-11-inside-1_6_211" fill="white">
<path d="M75 52C75 49.7909 76.7909 48 79 48H98C98.5523 48 99 48.4477 99 49V65C99 65.5523 98.5523 66 98 66H79C76.7909 66 75 64.2091 75 62V52Z"/>
</mask>
<path d="M75 52C75 49.7909 76.7909 48 79 48H98C98.5523 48 99 48.4477 99 49V65C99 65.5523 98.5523 66 98 66H79C76.7909 66 75 64.2091 75 62V52Z" fill="#0D0F15" stroke="#406DD6" stroke-width="6" mask="url(#path-11-inside-1_6_211)"/>
<mask id="mask0_6_211" style="mask-type:alpha" maskUnits="userSpaceOnUse" x="10" y="0" width="76" height="34">
<rect x="10" width="76" height="33.5" fill="#D9D9D9"/>
</mask>
<g mask="url(#mask0_6_211)">
<circle cx="47.3806" cy="17.1119" r="13.6119" fill="#14161E" stroke="#406DD6" stroke-width="3"/>
<circle cx="47.3806" cy="17.1119" r="7.45522" fill="#14161E" stroke="#406DD6" stroke-width="3"/>
<path d="M41.2239 24.9478C41.2239 33.2939 34.458 40.0598 26.1119 40.0598C17.7658 40.0598 11 33.2939 11 24.9478C11 16.6017 17.7658 9.83588 26.1119 9.83588C34.458 9.83588 41.2239 16.6017 41.2239 24.9478Z" fill="#14161E"/>
<path fill-rule="evenodd" clip-rule="evenodd" d="M26.1119 36.7015C32.6033 36.7015 37.8657 31.4392 37.8657 24.9478C37.8657 18.4564 32.6033 13.1941 26.1119 13.1941C19.6205 13.1941 14.3582 18.4564 14.3582 24.9478C14.3582 31.4392 19.6205 36.7015 26.1119 36.7015ZM26.1119 40.0598C34.458 40.0598 41.2239 33.2939 41.2239 24.9478C41.2239 16.6017 34.458 9.83588 26.1119 9.83588C17.7658 9.83588 11 16.6017 11 24.9478C11 33.2939 17.7658 40.0598 26.1119 40.0598Z" fill="#406DD6"/>
<path d="M35.0672 24.9478C35.0672 29.8937 31.0578 33.9031 26.1119 33.9031C21.1661 33.9031 17.1567 29.8937 17.1567 24.9478C17.1567 20.002 21.1661 15.9926 26.1119 15.9926C31.0578 15.9926 35.0672 20.002 35.0672 24.9478Z" fill="#14161E"/>
<path fill-rule="evenodd" clip-rule="evenodd" d="M26.1119 30.5449C29.2031 30.5449 31.709 28.039 31.709 24.9478C31.709 21.8567 29.2031 19.3508 26.1119 19.3508C23.0208 19.3508 20.5149 21.8567 20.5149 24.9478C20.5149 28.039 23.0208 30.5449 26.1119 30.5449ZM26.1119 33.9031C31.0578 33.9031 35.0672 29.8937 35.0672 24.9478C35.0672 20.002 31.0578 15.9926 26.1119 15.9926C21.1661 15.9926 17.1567 20.002 17.1567 24.9478C17.1567 29.8937 21.1661 33.9031 26.1119 33.9031Z" fill="#406DD6"/>
<path d="M86 24.9478C86 33.2939 79.2342 40.0598 70.8881 40.0598C62.542 40.0598 55.7761 33.2939 55.7761 24.9478C55.7761 16.6017 62.542 9.83588 70.8881 9.83588C79.2342 9.83588 86 16.6017 86 24.9478Z" fill="#14161E"/>
<path fill-rule="evenodd" clip-rule="evenodd" d="M70.8881 36.7015C77.3795 36.7015 82.6418 31.4392 82.6418 24.9478C82.6418 18.4564 77.3795 13.1941 70.8881 13.1941C64.3967 13.1941 59.1343 18.4564 59.1343 24.9478C59.1343 31.4392 64.3967 36.7015 70.8881 36.7015ZM70.8881 40.0598C79.2342 40.0598 86 33.2939 86 24.9478C86 16.6017 79.2342 9.83588 70.8881 9.83588C62.542 9.83588 55.7761 16.6017 55.7761 24.9478C55.7761 33.2939 62.542 40.0598 70.8881 40.0598Z" fill="#406DD6"/>
<path d="M79.8433 24.9478C79.8433 29.8937 75.8339 33.9031 70.8881 33.9031C65.9422 33.9031 61.9328 29.8937 61.9328 24.9478C61.9328 20.002 65.9422 15.9926 70.8881 15.9926C75.8339 15.9926 79.8433 20.002 79.8433 24.9478Z" fill="#14161E"/>
<path fill-rule="evenodd" clip-rule="evenodd" d="M70.8881 30.5449C73.9792 30.5449 76.4851 28.039 76.4851 24.9478C76.4851 21.8567 73.9792 19.3508 70.8881 19.3508C67.7969 19.3508 65.291 21.8567 65.291 24.9478C65.291 28.039 67.7969 30.5449 70.8881 30.5449ZM70.8881 33.9031C75.8339 33.9031 79.8433 29.8937 79.8433 24.9478C79.8433 20.002 75.8339 15.9926 70.8881 15.9926C65.9422 15.9926 61.9328 20.002 61.9328 24.9478C61.9328 29.8937 65.9422 33.9031 70.8881 33.9031Z" fill="#406DD6"/>
</g>
</svg>
