<svg width="83" height="94" viewBox="0 0 83 94" fill="none" xmlns="http://www.w3.org/2000/svg">
<path d="M72.5 81H81.5V18.5H72.5V81ZM72.5 81H65.5M65.5 81V30H56V81M65.5 81H56M56 81H49.5M49.5 81V36.5H40.5V81M49.5 81H40.5M40.5 81H33.75M33.75 81H27H7.5M33.75 81V20.5H24V55.5M0 81H7.5M7.5 81V46H17.5V59M13 21.5L28.5 4L45 27L78.5 5.5" stroke="#406DD6" stroke-width="3"/>
<circle cx="29" cy="4.5" r="3" fill="#0D0F15" stroke="#406DD6" stroke-width="3"/>
<circle cx="45" cy="27.5" r="3" fill="#0D0F15" stroke="#406DD6" stroke-width="3"/>
<circle cx="61" cy="16.5" r="3" fill="#0D0F15" stroke="#406DD6" stroke-width="3"/>
<circle cx="78" cy="5.5" r="3" fill="#0D0F15" stroke="#406DD6" stroke-width="3"/>
<circle cx="14" cy="20.5" r="3" fill="#0D0F15" stroke="#406DD6" stroke-width="3"/>
<circle cx="21.5" cy="74.5" r="19.5" fill="#14161E"/>
<path fill-rule="evenodd" clip-rule="evenodd" d="M21.5 92.05C31.1926 92.05 39.05 84.1926 39.05 74.5C39.05 64.8074 31.1926 56.95 21.5 56.95C11.8074 56.95 3.95 64.8074 3.95 74.5C3.95 84.1926 11.8074 92.05 21.5 92.05ZM21.5 94C32.2696 94 41 85.2696 41 74.5C41 63.7304 32.2696 55 21.5 55C10.7304 55 2 63.7304 2 74.5C2 85.2696 10.7304 94 21.5 94Z" fill="#406DD6"/>
<path fill-rule="evenodd" clip-rule="evenodd" d="M30.9222 83.9222C28.5108 86.3335 25.1796 87.825 21.5 87.825C14.1408 87.825 8.17498 81.8592 8.17498 74.5C8.17498 70.8204 9.66643 67.4891 12.0778 65.0778L10.6989 63.6989C7.93469 66.4632 6.22498 70.2819 6.22498 74.5C6.22498 82.9361 13.0638 89.775 21.5 89.775C25.7181 89.775 29.5368 88.0653 32.301 85.301L30.9222 83.9222ZM13.5575 63.7998C15.7755 62.1507 18.5238 61.175 21.5 61.175C28.8592 61.175 34.825 67.1408 34.825 74.5C34.825 77.4762 33.8492 80.2245 32.2002 82.4425L33.592 83.8343C35.5876 81.253 36.775 78.0152 36.775 74.5C36.775 66.0638 29.9361 59.225 21.5 59.225C17.9848 59.225 14.7469 60.4124 12.1656 62.4079L13.5575 63.7998Z" fill="#406DD6"/>
<path d="M16.95 81.65V67.35H21.7977C23.045 67.35 24.4513 67.7214 25.075 68.4643C25.7081 69.2071 25.8961 69.794 26.05 70.925C26.05 71.575 25.8941 72.2658 25.639 72.875C25.3838 73.4693 24.5664 73.9503 24.1223 74.2771C23.6782 74.604 23.1679 74.7674 22.5914 74.7674L22.8608 73.8537C23.4844 73.8537 24.0372 74.0171 24.5192 74.344C25.0011 74.656 25.3744 75.124 25.639 75.748C25.913 76.372 26.05 77.1371 26.05 78.0434C26.05 79.3805 25.7146 79.778 25.0436 80.5357C24.3727 81.2785 23.3852 81.65 22.0812 81.65H16.95ZM19.2321 79.5811H21.9111C22.5064 79.5811 22.9553 79.4325 23.2576 79.1354C23.5695 78.8234 23.7254 78.3331 23.7254 77.6645C23.7254 77.0108 23.5695 76.528 23.2576 76.216C22.9553 75.8891 22.5064 75.7257 21.9111 75.7257H19.062V73.096H22.1642C22.7217 73.096 23.1469 72.9474 23.4399 72.6503C23.7423 72.3383 23.8935 71.8703 23.8935 71.2463C23.8935 70.6371 23.7423 70.184 23.4399 69.8868C23.1469 69.5748 22.7217 69.4188 22.1642 69.4188H19.2321V79.5811Z" fill="#406DD6"/>
<path d="M19.875 65.4H21.825V68H19.875V65.4Z" fill="#406DD6"/>
<path d="M19.875 81H21.825V83.6H19.875V81Z" fill="#406DD6"/>
</svg>
