<svg width="103" height="87" viewBox="0 0 103 87" fill="none" xmlns="http://www.w3.org/2000/svg">
<path fill-rule="evenodd" clip-rule="evenodd" d="M75.6043 33.8016L67.5208 16.8993L75.6043 16.8993V33.8016ZM77.5752 33.8015L85.6587 16.8993L77.5752 16.8993V33.8015ZM78.3335 36.6965C77.6326 38.1619 75.5469 38.1619 74.8461 36.6965L65.7771 17.7336C65.1634 16.4503 66.0986 14.9658 67.5208 14.9658H85.6587C87.0809 14.9658 88.0161 16.4503 87.4024 17.7336L78.3335 36.6965Z" fill="#406DD6"/>
<path fill-rule="evenodd" clip-rule="evenodd" d="M100.359 26.4103C100.359 39.5376 89.7171 50.1795 76.5897 50.1795C76.566 50.1795 76.5423 50.1795 76.5186 50.1794C76.8559 51.0348 77.1498 51.912 77.3976 52.8084C91.6099 52.3814 103 40.726 103 26.4103C103 11.8243 91.1757 0 76.5897 0C62.0037 0 50.1795 11.8243 50.1795 26.4103C50.1795 28.8536 50.5113 31.2194 51.1322 33.4651C51.4006 33.457 51.6699 33.453 51.9402 33.453C52.6006 33.453 53.2553 33.4772 53.9036 33.5249C53.1998 31.2785 52.8205 28.8887 52.8205 26.4103C52.8205 13.2829 63.4623 2.64103 76.5897 2.64103C89.7171 2.64103 100.359 13.2829 100.359 26.4103Z" fill="#406DD6"/>
<path fill-rule="evenodd" clip-rule="evenodd" d="M100.359 26.4103C100.359 39.5376 89.7171 50.1795 76.5897 50.1795C76.566 50.1795 76.5423 50.1795 76.5186 50.1794C76.8559 51.0348 77.1498 51.912 77.3976 52.8084C91.6099 52.3814 103 40.726 103 26.4103C103 11.8243 91.1757 0 76.5897 0C62.0037 0 50.1795 11.8243 50.1795 26.4103C50.1795 28.8536 50.5113 31.2194 51.1322 33.4651C51.4006 33.457 51.6699 33.453 51.9402 33.453C52.6006 33.453 53.2553 33.4772 53.9036 33.5249C53.1998 31.2785 52.8205 28.8887 52.8205 26.4103C52.8205 13.2829 63.4623 2.64103 76.5897 2.64103C89.7171 2.64103 100.359 13.2829 100.359 26.4103Z" fill="#406DD6"/>
<path fill-rule="evenodd" clip-rule="evenodd" d="M51.9402 83.6325C65.0675 83.6325 75.7094 72.9906 75.7094 59.8633C75.7094 46.7359 65.0675 36.094 51.9402 36.094C38.8128 36.094 28.1709 46.7359 28.1709 59.8633C28.1709 72.9906 38.8128 83.6325 51.9402 83.6325ZM51.9402 86.2735C66.5261 86.2735 78.3504 74.4492 78.3504 59.8633C78.3504 45.2773 66.5261 33.453 51.9402 33.453C37.3542 33.453 25.5299 45.2773 25.5299 59.8633C25.5299 74.4492 37.3542 86.2735 51.9402 86.2735Z" fill="#406DD6"/>
<path fill-rule="evenodd" clip-rule="evenodd" d="M64.7013 72.6244C61.4355 75.8903 56.9237 77.9103 51.9402 77.9103C41.9731 77.9103 33.8932 69.8304 33.8932 59.8633C33.8932 54.8797 35.9131 50.368 39.179 47.1021L37.3115 45.2346C33.5677 48.9784 31.2521 54.1504 31.2521 59.8633C31.2521 71.289 40.5145 80.5513 51.9402 80.5513C57.653 80.5513 62.825 78.2357 66.5688 74.4919L64.7013 72.6244ZM41.1831 45.3712C44.187 43.1378 47.9093 41.8163 51.9402 41.8163C61.9073 41.8163 69.9872 49.8962 69.9872 59.8633C69.9872 63.8942 68.6657 67.6164 66.4322 70.6204L68.3173 72.5054C71.0201 69.0094 72.6282 64.6241 72.6282 59.8633C72.6282 48.4376 63.3659 39.1752 51.9402 39.1752C47.1793 39.1752 42.7941 40.7834 39.298 43.4861L41.1831 45.3712Z" fill="#406DD6"/>
<path d="M45.7778 69.547V50.1795H52.3433C54.0327 50.1795 55.9374 50.6826 56.782 51.6887C57.6395 52.6948 57.8941 53.4896 58.1026 55.0214C58.1026 55.9017 57.8914 56.8374 57.5458 57.6624C57.2003 58.4673 56.0932 59.1187 55.4917 59.5614C54.8902 60.0041 54.1991 60.2255 53.4184 60.2255L53.7831 58.988C54.6278 58.988 55.3765 59.2093 56.0292 59.652C56.6819 60.0745 57.1875 60.7084 57.5458 61.5535C57.917 62.3987 58.1026 63.4349 58.1026 64.6624C58.1026 66.4734 57.6482 67.0116 56.7395 68.0379C55.8309 69.044 54.4934 69.547 52.7273 69.547H45.7778ZM48.8686 66.745H52.4969C53.3032 66.745 53.9111 66.5438 54.3207 66.1414C54.743 65.7188 54.9542 65.0548 54.9542 64.1493C54.9542 63.2639 54.743 62.6099 54.3207 62.1874C53.9111 61.7447 53.3032 61.5233 52.4969 61.5233H48.6382V57.9617H52.8397C53.5948 57.9617 54.1707 57.7605 54.5675 57.3581C54.977 56.9355 55.1818 56.3017 55.1818 55.4565C55.1818 54.6315 54.977 54.0178 54.5675 53.6154C54.1707 53.1928 53.5948 52.9815 52.8397 52.9815H48.8686V66.745Z" fill="#406DD6"/>
<path d="M49.7393 47.5385H52.3803V51.0598H49.7393V47.5385Z" fill="#406DD6"/>
<path d="M49.7393 68.6667H52.3803V72.1881H49.7393V68.6667Z" fill="#406DD6"/>
<path fill-rule="evenodd" clip-rule="evenodd" d="M16.8632 13.2159L22.0645 31.9585L28.2295 16.4479L33.3084 27.9895L36.1426 23.2577H51.9402V25.8987H37.6393L32.9489 33.7295L28.3534 23.2864L21.619 40.2296L16.0708 20.2371L11.8797 27.9925H0.880341V25.3515H10.3049L16.8632 13.2159Z" fill="#406DD6"/>
<path fill-rule="evenodd" clip-rule="evenodd" d="M27.3692 50.1605C27.0511 50.1731 26.7314 50.1795 26.4103 50.1795C13.2829 50.1795 2.64103 39.5376 2.64103 26.4103C2.64103 13.2829 13.2829 2.64103 26.4103 2.64103C39.5376 2.64103 50.1795 13.2829 50.1795 26.4103C50.1795 28.919 49.7908 31.3369 49.0705 33.6071C49.9907 33.5077 50.925 33.4555 51.8711 33.4531C52.4899 31.2109 52.8205 28.8492 52.8205 26.4103C52.8205 11.8243 40.9962 0 26.4103 0C11.8243 0 0 11.8243 0 26.4103C0 40.9962 11.8243 52.8205 26.4103 52.8205C26.4333 52.8205 26.4563 52.8205 26.4794 52.8204C26.7297 51.9133 27.0273 51.0257 27.3692 50.1605Z" fill="#406DD6"/>
<path fill-rule="evenodd" clip-rule="evenodd" d="M27.3692 50.1605C27.0511 50.1731 26.7314 50.1795 26.4103 50.1795C13.2829 50.1795 2.64103 39.5376 2.64103 26.4103C2.64103 13.2829 13.2829 2.64103 26.4103 2.64103C39.5376 2.64103 50.1795 13.2829 50.1795 26.4103C50.1795 28.919 49.7908 31.3369 49.0705 33.6071C49.9907 33.5077 50.925 33.4555 51.8711 33.4531C52.4899 31.2109 52.8205 28.8492 52.8205 26.4103C52.8205 11.8243 40.9962 0 26.4103 0C11.8243 0 0 11.8243 0 26.4103C0 40.9962 11.8243 52.8205 26.4103 52.8205C26.4333 52.8205 26.4563 52.8205 26.4794 52.8204C26.7297 51.9133 27.0273 51.0257 27.3692 50.1605Z" fill="#406DD6"/>
</svg>
