<?xml version="1.0" encoding="UTF-8" standalone="no" ?>
<!DOCTYPE svg PUBLIC "-//W3C//DTD SVG 1.1//EN" "http://www.w3.org/Graphics/SVG/1.1/DTD/svg11.dtd">
<svg xmlns="http://www.w3.org/2000/svg" xmlns:xlink="http://www.w3.org/1999/xlink" version="1.1" width="500" height="500" viewBox="0 0 500 500" xml:space="preserve">
<desc>Created with Fabric.js 3.6.3</desc>
<defs>
</defs>
<g transform="matrix(0 -0.8461095585946362 -1.3544337561974513 0 170.76796313671787 250.50962745335855)"  >
<path style="stroke: none; stroke-width: 1; stroke-dasharray: none; stroke-linecap: butt; stroke-dashoffset: 0; stroke-linejoin: miter; stroke-miterlimit: 4; fill: rgb(255,255,255); fill-rule: nonzero; opacity: 1;"  transform=" translate(-49.95, -50)" d="M 91.7 49 H 8.3 c -0.6 0 -1 0.4 -1 1 s 0.4 1 1 1 h 83.3 c 0.6 0 1 -0.4 1 -1 S 92.2 49 91.7 49 z" stroke-linecap="round" />
</g>
<g transform="matrix(2.9724660613998926 -7.2804e-16 7.2804e-16 2.972466061399892 106.1145248595985 249.64024972423692)"  >
<path style="stroke: none; stroke-width: 0; stroke-dasharray: none; stroke-linecap: butt; stroke-dashoffset: 0; stroke-linejoin: miter; stroke-miterlimit: 4; fill: rgb(255,255,255); fill-rule: nonzero; opacity: 1;"  transform=" translate(-16, -15.999969499999999)" d="M 29 17 c 0.5522461 0 1 -0.4472656 1 -1 s -0.4477539 -1 -1 -1 h -2.4400024 c -0.0499878 -0.4798584 -0.1299438 -0.949585 -0.2398682 -1.3994141 h 2.6624146 c 0.005127 0.000061 0.0093994 0.0029297 0.0145264 0.0029297 c 0.2768555 0 0.5271606 -0.1127319 0.708252 -0.2944946 C 29.887146 13.1279907 30 12.8776855 30 12.6005859 c 0 -0.005127 -0.0028687 -0.0093994 -0.0029297 -0.0145264 V 10.203125 c 0 -0.5527344 -0.4477539 -1 -1 -1 s -1 0.4472656 -1 1 v 1.3974609 H 25.630249 c -0.0001221 -0.0001831 -0.0001221 -0.0004272 -0.0002441 -0.0006104 C 23.960022 7.9500122 20.2700195 5.3999634 16 5.3999634 s -7.960022 2.5500488 -9.6300049 6.2000122 C 6.369873 11.6001587 6.369873 11.6004028 6.369751 11.6005859 H 4.0029297 V 10.203125 c 0 -0.5527344 -0.4477539 -1 -1 -1 s -1 0.4472656 -1 1 v 2.3829346 C 2.0028687 12.5911865 2 12.595459 2 12.6005859 c 0 0.2770996 0.112854 0.5274048 0.2946777 0.7084351 c 0.1810913 0.1817627 0.4313965 0.2944946 0.708252 0.2944946 c 0.005127 0 0.0093994 -0.0028687 0.0145264 -0.0029297 h 2.6624146 C 5.5699463 14.050415 5.4899902 14.5201416 5.4400024 15 H 3.0029297 c -0.5522461 0 -1 0.4472656 -1 1 s 0.4477539 1 1 1 h 2.4370728 c 0.0499878 0.4797974 0.1299438 0.949646 0.2398682 1.3994141 H 3.0174561 c -0.005127 -0.000061 -0.0093994 -0.0029297 -0.0145264 -0.0029297 c -0.2768555 0 -0.5271606 0.1127319 -0.708252 0.2944946 C 2.112854 18.8720093 2 19.1223145 2 19.3994141 c 0 0.005127 0.0028687 0.0093994 0.0029297 0.0145264 v 2.3829346 c 0 0.5527344 0.4477539 1 1 1 s 1 -0.4472656 1 -1 v -1.3974609 H 6.369751 c 0.000061 0.0001831 0.0001831 0.0003662 0.0002441 0.0005493 C 8.039978 24.0499878 11.7299805 26.5999756 16 26.5999756 s 7.960022 -2.5499878 9.6300049 -6.2000122 c 0.000061 -0.0001831 0.0001831 -0.0003662 0.0002441 -0.0005493 h 2.3668213 v 1.3974609 c 0 0.5527344 0.4477539 1 1 1 s 1 -0.4472656 1 -1 v -2.3829346 C 29.9971313 19.4088135 30 19.404541 30 19.3994141 c 0 -0.2770996 -0.112854 -0.5274048 -0.2946777 -0.7084351 c -0.1810913 -0.1817627 -0.4313965 -0.2944946 -0.708252 -0.2944946 c -0.005127 0 -0.0093994 0.0028687 -0.0145264 0.0029297 h -2.6624146 C 26.4300537 17.949646 26.5100098 17.4797974 26.5599976 17 H 29 z M 14.5300293 18.8200073 h 3.1199951 c 0.4499512 0 0.8199463 -0.3699951 0.8199463 -0.8200073 c 0 -0.5499878 0.4500122 -1 1 -1 c 0.5500488 0 1 0.4500122 1 1 c 0 1.5499878 -1.2599487 2.8200073 -2.8199463 2.8200073 H 17 V 22 c 0 0.5499878 -0.4500122 1 -1 1 s -1 -0.4500122 -1 -1 v -1.1799927 h -0.4699707 c -1.6500244 0 -3 -1.3500366 -3 -3 v -3.6400146 c 0 -1.6500244 1.3499756 -3 3 -3 H 15 V 10 c 0 -0.5499878 0.4500122 -1 1 -1 s 1 0.4500122 1 1 v 1.1799927 h 0.6500244 c 1.5599976 0 2.8199463 1.2700195 2.8199463 2.8200073 c 0 0.5499878 -0.4499512 1 -1 1 c -0.5499878 0 -1 -0.4500122 -1 -1 c 0 -0.4500122 -0.3699951 -0.8200073 -0.8199463 -0.8200073 h -3.1199951 c -0.5500488 0 -1 0.4500122 -1 1 v 3.6400146 C 13.5300293 18.3699951 13.9799805 18.8200073 14.5300293 18.8200073 z" stroke-linecap="round" />
</g>
<g transform="matrix(1 0 0 1 331.72117469235525 251.57538965467253)" style=""  ><path fill="#ffffff" opacity="1" d="M-121.24-20.51C-134.64-20.51-141.97-13.19-141.97-1.81C-141.97 9.56-134.64 16.89-121.24 16.89C-109.11 16.89-102.54 10.32-102.54 4.25C-102.54 2.99-103.30 2.23-104.56 2.23L-110.88 2.23C-112.40 2.23-113.21 2.99-113.91 4.25C-115.18 6.53-117.20 8.55-121.24 8.55C-126.80 8.55-130.34 5.01-130.34-1.81C-130.34-8.64-126.80-12.17-121.24-12.17C-117.45-12.17-115.68-10.41-114.42-8.38C-113.66-7.12-112.90-6.36-111.39-6.36L-105.07-6.36C-103.80-6.36-103.05-7.12-103.05-8.38C-103.05-14.20-109.36-20.51-121.24-20.51Z"/><path fill="#ffffff" opacity="1" d="M-67.16 0.21C-67.16 0.21-60.34-1.31-60.34-7.88C-60.34-14.20-65.64-19.50-76.76-19.50L-95.21-19.50C-96.22-19.50-96.98-18.75-96.98-17.73L-96.98 14.11C-96.98 15.12-96.22 15.88-95.21 15.88L-87.63 15.88C-86.62 15.88-85.86 15.12-85.86 14.11L-85.86 3.75L-79.29 3.75C-76.51 3.75-75.55 4.76-74.74 6.27L-70.44 14.11C-69.89 15.12-69.18 15.88-67.16 15.88L-59.32 15.88C-58.06 15.88-57.66 14.87-58.06 14.11L-62.36 6.27C-64.88 1.73-67.16 0.71-67.16 0.71ZM-85.86-4.34L-85.86-11.42L-76.76-11.42C-73.48-11.42-71.96-9.90-71.96-7.88C-71.96-5.86-73.48-4.34-76.76-4.34Z"/><path fill="#ffffff" opacity="1" d="M-17.02-17.73C-16.51-18.49-17.02-19.50-18.28-19.50L-26.12-19.50C-27.63-19.50-28.69-18.49-29.15-17.73L-36.73-5.35L-37.24-5.35L-44.82-17.73C-45.27-18.49-46.33-19.50-47.85-19.50L-55.69-19.50C-56.95-19.50-57.45-18.49-56.95-17.73L-42.54 4.76L-42.54 14.11C-42.54 15.12-41.79 15.88-40.77 15.88L-33.19 15.88C-32.18 15.88-31.42 15.12-31.42 14.11L-31.42 4.76Z"/><path fill="#ffffff" opacity="1" d="M23.87-6.61C23.87-13.94 18.31-19.50 6.44-19.50L-11.26-19.50C-12.27-19.50-13.02-18.75-13.02-17.73L-13.02 14.11C-13.02 15.12-12.27 15.88-11.26 15.88L-3.67 15.88C-2.66 15.88-1.90 15.12-1.90 14.11L-1.90 6.27L6.44 6.27C18.31 6.27 23.87 0.71 23.87-6.61ZM-1.90-1.81L-1.90-11.42L6.44-11.42C10.23-11.42 12.25-9.39 12.25-6.61C12.25-3.83 10.23-1.81 6.44-1.81Z"/><path fill="#ffffff" opacity="1" d="M60.27-8.38C60.27-14.70 54.45-20.51 43.84-20.51C32.72-20.51 27.16-14.95 27.16-9.39C27.16-8.13 27.92-7.37 29.18-7.37L35.50-7.37C37.02-7.37 37.77-8.18 38.53-9.39C39.29-10.66 40.81-12.17 43.84-12.17C46.87-12.17 48.64-10.41 48.64-8.38C48.64-2.32 26.91-2.32 26.91 9.81L26.91 14.11C26.91 15.12 27.66 15.88 28.68 15.88L58.19 15.88C59.21 15.88 59.96 15.12 59.96 14.11L59.96 9.05C59.96 8.04 59.21 7.29 58.19 7.29L40.30 7.29L40.30 6.78C45.36 3.75 60.27 2.74 60.27-8.38Z"/><path fill="#ffffff" opacity="1" d="M102.98-6.61C102.98-13.94 97.42-19.50 85.54-19.50L67.85-19.50C66.84-19.50 66.08-18.75 66.08-17.73L66.08 14.11C66.08 15.12 66.84 15.88 67.85 15.88L75.43 15.88C76.44 15.88 77.20 15.12 77.20 14.11L77.20 6.27L85.54 6.27C97.42 6.27 102.98 0.71 102.98-6.61ZM77.20-1.81L77.20-11.42L85.54-11.42C89.33-11.42 91.35-9.39 91.35-6.61C91.35-3.83 89.33-1.81 85.54-1.81Z"/></g></svg>