<svg width="207" height="41" viewBox="0 0 207 41" fill="none" xmlns="http://www.w3.org/2000/svg">
<path d="M60.7002 0.642663V39.8771C60.7002 40.1594 60.399 40.3475 59.9471 40.3475C59.4953 40.3475 59.1941 40.1594 59.1941 39.8771V0.689706C59.1941 0.407443 59.4953 0.219269 59.9471 0.219269C60.399 0.219269 60.7002 0.407444 60.7002 0.642663Z" fill="black"/>
<path d="M45.4845 21.4528C46.3972 21.4528 47.1372 20.7136 47.1372 19.8001C47.1372 18.8866 46.3972 18.1474 45.4845 18.1474H41.4519C41.3693 17.3543 41.2371 16.578 41.0555 15.8346H45.4556C45.4641 15.8347 45.4712 15.8394 45.4796 15.8394C45.9372 15.8394 46.3509 15.6531 46.6502 15.3527C46.9507 15.0535 47.1372 14.6399 47.1372 14.1819C47.1372 14.1734 47.1324 14.1664 47.1323 14.1579V10.2196C47.1323 9.30614 46.3923 8.56695 45.4796 8.56695C44.5669 8.56695 43.8269 9.30614 43.8269 10.2196V12.5292L39.9153 12.5292C39.9151 12.5289 39.9151 12.5285 39.9149 12.5282C37.1549 6.49594 31.0565 2.28149 23.9995 2.28149C16.9425 2.28149 10.844 6.49594 8.08407 12.5282C8.08387 12.5285 8.08387 12.5289 8.08367 12.5292L4.17204 12.5292L4.17204 10.2196C4.17204 9.30614 3.43204 8.56695 2.51935 8.56695C1.60666 8.56695 0.866658 9.30614 0.866658 10.2196L0.866658 14.1579C0.866557 14.1664 0.861816 14.1734 0.861816 14.1819C0.861816 14.6399 1.04833 15.0535 1.34883 15.3527C1.64812 15.6531 2.06179 15.8394 2.51935 15.8394C2.52782 15.8394 2.53488 15.8347 2.54336 15.8346L6.94351 15.8346C6.76183 16.578 6.62969 17.3543 6.54708 18.1474H2.51935C1.60666 18.1474 0.866658 18.8866 0.866658 19.8001C0.866658 20.7136 1.60666 21.4528 2.51935 21.4528H6.54708C6.62969 22.2457 6.76183 23.0222 6.94351 23.7656H2.54336C2.53488 23.7655 2.52782 23.7607 2.51935 23.7607C2.06179 23.7607 1.64812 23.947 1.34883 24.2474C1.04833 24.5466 0.861816 24.9603 0.861816 25.4183C0.861816 25.4267 0.866557 25.4338 0.866658 25.4423L0.866658 29.3805C0.866658 30.294 1.60666 31.0332 2.51935 31.0332C3.43204 31.0332 4.17204 30.294 4.17204 29.3805L4.17204 27.071H8.08367C8.08377 27.0713 8.08397 27.0716 8.08407 27.0719C10.844 33.1042 16.9425 37.3186 23.9995 37.3186C31.0565 37.3186 37.1549 33.1042 39.9149 27.0719C39.915 27.0716 39.9152 27.0713 39.9153 27.071H43.8269V29.3805C43.8269 30.294 44.5669 31.0332 45.4796 31.0332C46.3923 31.0332 47.1323 30.294 47.1323 29.3805V25.4423C47.1324 25.4338 47.1372 25.4267 47.1372 25.4183C47.1372 24.9603 46.9507 24.5466 46.6502 24.2474C46.3509 23.947 45.9372 23.7607 45.4796 23.7607C45.4712 23.7607 45.4641 23.7655 45.4556 23.7656H41.0555C41.2371 23.0222 41.3693 22.2457 41.4519 21.4528H45.4845ZM21.5701 24.4607L26.7265 24.4607C27.4701 24.4607 28.0816 23.8492 28.0816 23.1055C28.0816 22.1965 28.8253 21.4528 29.7343 21.4528C30.6433 21.4528 31.387 22.1965 31.387 23.1055C31.387 25.6671 29.3047 27.7661 26.7265 27.7661H25.6522V29.7162C25.6522 30.6252 24.9085 31.3689 23.9995 31.3689C23.0905 31.3689 22.3468 30.6252 22.3468 29.7162V27.7661H21.5701C18.8431 27.7661 16.612 25.5349 16.612 22.808L16.612 16.7922C16.612 14.0652 18.8431 11.8341 21.5701 11.8341H22.3468V9.88393C22.3468 8.97497 23.0905 8.23124 23.9995 8.23124C24.9085 8.23124 25.6522 8.97497 25.6522 9.88393V11.8341L26.7265 11.8341C29.3047 11.8341 31.387 13.933 31.387 16.4947C31.387 17.4037 30.6433 18.1474 29.7343 18.1474C28.8253 18.1474 28.0816 17.4037 28.0816 16.4947C28.0816 15.751 27.4701 15.1395 26.7265 15.1395L21.5701 15.1395C20.661 15.1395 19.9174 15.8832 19.9174 16.7922V22.808C19.9174 23.717 20.661 24.4607 21.5701 24.4607Z" fill="black"/>
<path d="M82.0273 9.47241C74.5769 9.47241 70.5015 13.5423 70.5015 19.8696C70.5015 26.1913 74.5769 30.2668 82.0273 30.2668C88.7716 30.2668 92.4245 26.6139 92.4245 23.239C92.4245 22.5384 92.002 22.1159 91.3014 22.1159H87.7875C86.9424 22.1159 86.492 22.5384 86.1028 23.239C85.3967 24.5067 84.2736 25.6298 82.0273 25.6298C78.936 25.6298 76.9677 23.6615 76.9677 19.8696C76.9677 16.0721 78.936 14.1095 82.0273 14.1095C84.1346 14.1095 85.1187 15.088 85.8193 16.2167C86.2418 16.9173 86.6644 17.3398 87.5039 17.3398H91.0179C91.724 17.3398 92.141 16.9173 92.141 16.2167C92.141 12.9808 88.6326 9.47241 82.0273 9.47241Z" fill="black"/>
<path d="M112.096 20.9928C112.096 20.9928 115.888 20.1476 115.888 16.4947C115.888 12.9808 112.941 10.034 106.758 10.034H96.5002C95.9387 10.034 95.5161 10.451 95.5161 11.0181V28.7212C95.5161 29.2827 95.9387 29.7053 96.5002 29.7053H100.715C101.276 29.7053 101.699 29.2827 101.699 28.7212V22.961H105.352C106.897 22.961 107.431 23.5226 107.882 24.3621L110.272 28.7212C110.578 29.2827 110.973 29.7053 112.096 29.7053H116.455C117.156 29.7053 117.378 29.1437 117.156 28.7212L114.765 24.3621C113.364 21.8379 112.096 21.2708 112.096 21.2708V20.9928ZM101.699 18.463V14.5265H106.758C108.582 14.5265 109.427 15.3716 109.427 16.4947C109.427 17.6178 108.582 18.463 106.758 18.463H101.699Z" fill="black"/>
<path d="M139.974 11.0181C140.257 10.5956 139.974 10.034 139.273 10.034H134.914C134.074 10.034 133.485 10.5956 133.229 11.0181L129.015 17.9014H128.731L124.517 11.0181C124.267 10.5956 123.677 10.034 122.832 10.034H118.473C117.772 10.034 117.494 10.5956 117.772 11.0181L125.784 23.5226V28.7212C125.784 29.2827 126.201 29.7053 126.769 29.7053H130.983C131.545 29.7053 131.967 29.2827 131.967 28.7212V23.5226L139.974 11.0181Z" fill="black"/>
<path d="M162.709 17.2008C162.709 13.1254 159.617 10.034 153.018 10.034H143.176C142.615 10.034 142.198 10.451 142.198 11.0181V28.7212C142.198 29.2827 142.615 29.7053 143.176 29.7053H147.396C147.958 29.7053 148.38 29.2827 148.38 28.7212V24.3621H153.018C159.617 24.3621 162.709 21.2708 162.709 17.2008ZM148.38 19.8696V14.5265H153.018C155.125 14.5265 156.248 15.6552 156.248 17.2008C156.248 18.7465 155.125 19.8696 153.018 19.8696H148.38Z" fill="black"/>
<path d="M182.947 16.2167C182.947 12.7028 179.711 9.47241 173.812 9.47241C167.629 9.47241 164.538 12.5638 164.538 15.6551C164.538 16.3557 164.96 16.7783 165.661 16.7783H169.175C170.02 16.7783 170.437 16.3279 170.86 15.6551C171.282 14.949 172.127 14.1095 173.812 14.1095C175.497 14.1095 176.481 15.088 176.481 16.2167C176.481 19.5861 164.399 19.5861 164.399 26.3303V28.7211C164.399 29.2827 164.816 29.7053 165.383 29.7053H181.791C182.358 29.7053 182.775 29.2827 182.775 28.7211V25.9078C182.775 25.3462 182.358 24.9292 181.791 24.9292H171.844V24.6457C174.657 22.961 182.947 22.3994 182.947 16.2167Z" fill="black"/>
<path d="M206.694 17.2008C206.694 13.1254 203.602 10.034 196.997 10.034H187.161C186.6 10.034 186.177 10.451 186.177 11.0181V28.7212C186.177 29.2827 186.6 29.7053 187.161 29.7053H191.376C191.937 29.7053 192.36 29.2827 192.36 28.7212V24.3621H196.997C203.602 24.3621 206.694 21.2708 206.694 17.2008ZM192.36 19.8696V14.5265H196.997C199.104 14.5265 200.227 15.6552 200.227 17.2008C200.227 18.7465 199.104 19.8696 196.997 19.8696H192.36Z" fill="black"/>
</svg>
